# xmcd
#
# Track frame offsets:
#	150
#	1550
#	4798
#	7548
#	9972
#	11114
#	13577
#	19099
#	24715
#	31310
#	36905
#	42147
#	46843
#	54179
#	60498
#	67163
#	70536
#	77554
#	83942
#	91036
#	98888
#	104611
#	110769
#	118461
#	125231
#	130946
#	138606
#	147776
#	155356
#	162663
#	172691
#	181853
#	188504
#	194733
#	199863
#	207698
#	215660
#
# Disc length: 3036 seconds
#
# Revision: 0
# Processed by: cddbd v1.5.2PL0 Copyright (c) Steve Scherf et al.
# Submitted via: dBpowerAMP V4.0
#
DISCID=f10bda25
DTITLE=Verskeie Kunstenaars - 101 Grootste Love Songs
DYEAR=1900
DGENRE=
TTITLE0=OUT of  Blue
TTITLE1=Needles and Pins
TTITLE2=Stumblin' in
TTITLE3=For A Few Dollars More
TTITLE4=If You Think You Know How To Love Me
TTITLE5=Living Next Door To Alice
TTITLE6=Mexican Girl
TTITLE7=I've Been Thinking About You
TTITLE8=Head Over Heels
TTITLE9=Highway To Your Heart
TTITLE10=You've Lost That Loving' Feelin'
TTITLE11=Something's Gotten Hold Of My Heart
TTITLE12=(I've Had) The Time Of My Life
TTITLE13=Endless Love
TTITLE14=Maggie
TTITLE15=After All These Years
TTITLE16=I Will Love You All My Life
TTITLE17=A Bunch Of Thyme
TTITLE18=All I Wanna Do Is Make Love To You
TTITLE19=Hungry Eyes
TTITLE20=Love Changes Everything
TTITLE21=The One And Only
TTITLE22=Escape
TTITLE23=Da Idi
TTITLE24=Evergreen
TTITLE25=Thorn In My Side
TTITLE26=Flames Of Love
TTITLE27=Always On My Mind
TTITLE28=Sometimes
TTITLE29=Forever Young
TTITLE30=If Tomorrow Never Comes
TTITLE31=Hero
TTITLE32=Bop Bop Baby
TTITLE33=Anyone Of Us
TTITLE34=Addicted
TTITLE35=Mandy
TTITLE36=Say It Isn't So
EXTD=
EXTT0=
EXTT1=
EXTT2=
EXTT3=
EXTT4=
EXTT5=
EXTT6=
EXTT7=
EXTT8=
EXTT9=
EXTT10=
EXTT11=
EXTT12=
EXTT13=
EXTT14=
EXTT15=
EXTT16=
EXTT17=
EXTT18=
EXTT19=
EXTT20=
EXTT21=
EXTT22=
EXTT23=
EXTT24=
EXTT25=
EXTT26=
EXTT27=
EXTT28=
EXTT29=
EXTT30=
EXTT31=
EXTT32=
EXTT33=
EXTT34=
EXTT35=
EXTT36=
PLAYORDER=
